:FULLY-SPECIFIED
:FORCE-ALL-JOINTS-BE-3DOF
:DEGREES
476
root 4.68947 16.2862 -7.08658 0.954788 51.7004 -5.98492
lfemur -27.4992 -10.3963 -16.0798
ltibia 49.2522 -0 0
lfoot -23.7819 -3.10032 0.0789738
ltoes 8.89991 -0 0
rfemur -51.6056 5.50812 7.3304
rtibia 64.2095 -0 0
rfoot 7.31141 8.43173 0.0508253
rtoes -15.4481 0 0
lowerback 6.17681 0.514425 0.0155756
upperback 0.922505 0.698405 0.66749
thorax -2.43068 0.358936 0.637984
lowerneck -8.53765 -5.48391 1.48323
upperneck 7.65274 -7.56744 0.616028
head 3.9584 -3.67584 -0.677617
lclavicle -1.59511e-14 2.46911e-15 2.59102e-31
lhumerus -46.6883 -30.2648 109.674
lradius 53.9287 -0 0
lwrist 6.84564 0 0
lhand -0.787514 0.331524 0.0775983
lfingers 7.12502 -0 0
lthumb 24.7849 28.153 -0.0864603
rclavicle -1.59511e-14 2.46911e-15 2.59102e-31
rhumerus -41.6819 28.7302 -93.2488
rradius 85.5279 -0 0
rwrist 20.4936 0 0
rhand -9.4865 -17.1321 0.459871
rfingers 7.12502 -0 0
rthumb 16.4477 -45.8863 0.543193
477
root 4.71582 16.294 -7.03243 0.893161 53.2487 -6.01728
lfemur -27.4433 -10.754 -16.3319
ltibia 49.1458 -0 0
lfoot -23.8224 -3.27967 0.0771368
ltoes 9.21109 -0 0
rfemur -51.9032 5.55621 7.38819
rtibia 64.5363 -0 0
rfoot 7.34676 8.56375 0.0496435
rtoes -15.469 0 0
lowerback 6.17015 0.476639 -0.0424603
upperback 0.900199 0.645741 0.695891
thorax -2.45245 0.333359 0.703691
lowerneck -8.56575 -5.66597 1.33767
upperneck 7.71486 -7.8006 0.667974
head 3.97956 -3.79109 -0.649138
lclavicle -1.57762e-14 2.3331e-15 2.53081e-31
lhumerus -46.7682 -30.4028 109.949
lradius 54.0265 -0 0
lwrist 6.7371 0 0
lhand -0.404119 0.350135 0.0757869
lfingers 7.12502 -0 0
lthumb 25.153 28.1314 -0.0844427
rclavicle -1.57762e-14 2.3331e-15 2.53081e-31
rhumerus -41.5896 29.2196 -93.3256
rradius 85.8361 -0 0
rwrist 20.6518 0 0
rhand -9.06537 -17.0316 0.449123
rfingers 7.12502 -0 0
rthumb 16.8536 -45.7632 0.5305
478
root 4.74217 16.3018 -6.97829 0.827678 54.7971 -6.05377
lfemur -27.3858 -11.1114 -16.5846
ltibia 49.0393 -0 0
lfoot -23.8628 -3.45903 0.0751731
ltoes 9.52227 -0 0
rfemur -52.2009 5.60459 7.44573
rtibia 64.863 -0 0
rfoot 7.38211 8.69577 0.0483804
rtoes -15.4898 0 0
lowerback 6.16352 0.438846 -0.100492
upperback 0.877867 0.593088 0.724312
thorax -2.47424 0.307808 0.769408
lowerneck -8.5934 -5.8481 1.19215
upperneck 7.7768 -8.03381 0.719694
head 4.00067 -3.90634 -0.620698
lclavicle -1.56013e-14 2.19709e-15 2.46645e-31
lhumerus -46.8489 -30.5404 110.226
lradius 54.1243 -0 0
lwrist 6.62856 0 0
lhand -0.0207241 0.368733 0.073851
lfingers 7.12502 -0 0
lthumb 25.5212 28.1098 -0.0822864
rclavicle -1.56013e-14 2.19709e-15 2.46645e-31
rhumerus -41.4975 29.7091 -93.4019
rradius 86.1443 -0 0
rwrist 20.81 0 0
rhand -8.64425 -16.9313 0.437636
rfingers 7.12502 -0 0
rthumb 17.2594 -45.6402 0.516935
479
root 4.76853 16.3097 -6.92415 0.757783 56.3453 -6.09491
lfemur -27.3266 -11.4686 -16.838
ltibia 48.9329 -0 0
lfoot -23.9032 -3.63838 0.0730829
ltoes 9.83344 -0 0
rfemur -52.4985 5.65327 7.50303
rtibia 65.1897 -0 0
rfoot 7.41746 8.8278 0.0470357
rtoes -15.5106 0 0
lowerback 6.15693 0.401046 -0.158518
upperback 0.855509 0.540445 0.752754
thorax -2.49606 0.282281 0.835135
lowerneck -8.62059 -6.0303 1.04667
upperneck 7.83856 -8.26709 0.77119
head 4.02173 -4.02161 -0.592297
lclavicle -1.54264e-14 2.06108e-15 2.39793e-31
lhumerus -46.9306 -30.6777 110.502
lradius 54.2221 -0 0
lwrist 6.52002 0 0
lhand 0.36267 0.387317 0.0717906
lfingers 7.12502 -0 0
lthumb 25.8893 28.0883 -0.0799915
rclavicle -1.54264e-14 2.06108e-15 2.39793e-31
rhumerus -41.4057 30.1987 -93.4776
rradius 86.4525 -0 0
rwrist 20.9682 0 0
rhand -8.22316 -16.831 0.425412
rfingers 7.12502 -0 0
rthumb 17.6652 -45.5173 0.5025
480
root 4.79488 16.3175 -6.87 0.682812 57.8936 -6.14136
lfemur -27.2657 -11.8255 -17.092
ltibia 48.8265 -0 0
lfoot -23.9436 -3.81773 0.0708661
ltoes 10.1446 -0 0
rfemur -52.7961 5.70224 7.56007
rtibia 65.5164 -0 0
rfoot 7.4528 8.95982 0.0456096
rtoes -15.5315 0 0
lowerback 6.15038 0.363239 -0.21654
upperback 0.833126 0.487814 0.781215
thorax -2.51791 0.256779 0.900871
lowerneck -8.64733 -6.21257 0.901235
upperneck 7.90015 -8.50041 0.822462
head 4.04273 -4.1369 -0.563934
lclavicle -1.52515e-14 1.92507e-15 2.32527e-31
lhumerus -47.0131 -30.8146 110.779
lradius 54.3198 -0 0
lwrist 6.41149 0 0
lhand 0.746063 0.405888 0.069606
lfingers 7.12502 -0 0
lthumb 26.2575 28.0667 -0.0775582
rclavicle -1.52515e-14 1.92507e-15 2.32527e-31
rhumerus -41.3142 30.6884 -93.5528
rradius 86.7607 -0 0
rwrist 21.1264 0 0
rhand -7.80209 -16.7308 0.412452
rfingers 7.12502 -0 0
rthumb 18.071 -45.3945 0.487194
481
root 4.82123 16.3254 -6.81586 0.60197 59.4418 -6.19391
lfemur -27.2032 -12.1821 -17.3469
ltibia 48.7201 -0 0
lfoot -23.9841 -3.99708 0.0685228
ltoes 10.4558 -0 0
rfemur -53.0936 5.75151 7.61686
rtibia 65.8432 -0 0
rfoot 7.48815 9.09184 0.0441021
rtoes -15.5523 0 0
lowerback 6.14387 0.325426 -0.274558
upperback 0.810716 0.435194 0.809697
thorax -2.53979 0.231303 0.966617
lowerneck -8.6736 -6.3949 0.755831
upperneck 7.96157 -8.73379 0.873512
head 4.06367 -4.25219 -0.53561
lclavicle -1.50766e-14 1.78906e-15 2.24845e-31
lhumerus -47.0965 -30.9512 111.057
lradius 54.4176 -0 0
lwrist 6.30295 0 0
lhand 1.12946 0.424443 0.0672972
lfingers 7.12502 -0 0
lthumb 26.6256 28.0452 -0.0749864
rclavicle -1.50766e-14 1.78906e-15 2.24845e-31
rhumerus -41.2231 31.1783 -93.6275
rradius 87.0689 -0 0
rwrist 21.2847 0 0
rhand -7.38104 -16.6307 0.398756
rfingers 7.12502 -0 0
rthumb 18.4768 -45.2718 0.471019
482
root 4.84758 16.3332 -6.76172 0.51429 60.99 -6.2535
lfemur -27.1389 -12.5385 -17.6024
ltibia 48.6137 -0 0
lfoot -24.0245 -4.17643 0.0660531
ltoes 10.767 -0 0
rfemur -53.3911 5.80107 7.6734
rtibia 66.1699 -0 0
rfoot 7.52348 9.22386 0.0425132
rtoes -15.5732 0 0
lowerback 6.1374 0.287606 -0.33257
upperback 0.788281 0.382585 0.8382
thorax -2.5617 0.205852 1.03237
lowerneck -8.69942 -6.5773 0.610458
upperneck 8.02281 -8.96723 0.924341
head 4.08457 -4.36749 -0.507323
lclavicle -1.49016e-14 1.65305e-15 2.16748e-31
lhumerus -47.1808 -31.0875 111.336
lradius 54.5154 -0 0
lwrist 6.19441 0 0
lhand 1.51285 0.442982 0.0648643
lfingers 7.12502 -0 0
lthumb 26.9938 28.0237 -0.0722763
rclavicle -1.49016e-14 1.65305e-15 2.16748e-31
rhumerus -41.1321 31.6682 -93.7016
rradius 87.3771 -0 0
rwrist 21.4429 0 0
rhand -6.96002 -16.5307 0.384325
rfingers 7.12502 -0 0
rthumb 18.8825 -45.1492 0.453976
483
root 4.87393 16.341 -6.70757 0.418593 62.5382 -6.3213
lfemur -27.0729 -12.8946 -17.8588
ltibia 48.5073 -0 0
lfoot -24.0649 -4.35578 0.0634568
ltoes 11.0782 -0 0
rfemur -53.6886 5.85092 7.72969
rtibia 66.4966 -0 0
rfoot 7.55882 9.35588 0.0408428
rtoes -15.594 0 0
lowerback 6.13096 0.24978 -0.390579
upperback 0.765819 0.329988 0.866723
thorax -2.58364 0.180425 1.09814
lowerneck -8.72479 -6.75977 0.465114
upperneck 8.08388 -9.20071 0.97495
head 4.10541 -4.4828 -0.479074
lclavicle -1.47267e-14 1.51704e-15 2.08236e-31
lhumerus -47.266 -31.2234 111.615
lradius 54.6131 -0 0
lwrist 6.08587 0 0
lhand 1.89624 0.461505 0.0623073
lfingers 7.12502 -0 0
lthumb 27.362 28.0022 -0.069428
rclavicle -1.47267e-14 1.51704e-15 2.08236e-31
rhumerus -41.0415 32.1582 -93.7753
rradius 87.6853 -0 0
rwrist 21.6011 0 0
rhand -6.53902 -16.4308 0.369159
rfingers 7.12502 -0 0
rthumb 19.2882 -45.0267 0.436066
484
root 4.90029 16.3489 -6.65343 0.313419 64.0862 -6.39877
lfemur -27.0051 -13.2504 -18.1159
ltibia 48.4009 -0 0
lfoot -24.1053 -4.53513 0.0607341
ltoes 11.3893 -0 0
rfemur -53.9861 5.90106 7.78572
rtibia 66.8234 -0 0
rfoot 7.59415 9.4879 0.039091
rtoes -15.6149 0 0
lowerback 6.12457 0.211947 -0.448583
upperback 0.743331 0.277401 0.895266
thorax -2.60561 0.155024 1.16391
lowerneck -8.7497 -6.94229 0.319796
upperneck 8.14479 -9.43425 1.02534
head 4.12619 -4.59812 -0.450862
lclavicle -1.45518e-14 1.38103e-15 1.99309e-31
lhumerus -47.3521 -31.3589 111.895
lradius 54.7109 -0 0
lwrist 5.97733 0 0
lhand 2.27963 0.48001 0.0596265
lfingers 7.12502 -0 0
lthumb 27.7301 27.9807 -0.0664416
rclavicle -1.45518e-14 1.38103e-15 1.99309e-31
rhumerus -40.9511 32.6484 -93.8484
rradius 87.9935 -0 0
rwrist 21.7593 0 0
rhand -6.11806 -16.3311 0.35326
rfingers 7.12502 -0 0
rthumb 19.6938 -44.9044 0.417289
485
root 4.92664 16.3567 -6.59929 0.196937 65.6342 -6.48771
lfemur -26.9356 -13.6058 -18.3738
ltibia 48.2944 -0 0
lfoot -24.1456 -4.71447 0.0578849
ltoes 11.7005 -0 0
rfemur -54.2836 5.95149 7.84149
rtibia 67.1501 -0 0
rfoot 7.62948 9.61991 0.0372578
rtoes -15.6357 0 0
lowerback 6.11821 0.174108 -0.506583
upperback 0.720818 0.224826 0.92383
thorax -2.62761 0.129649 1.2297
lowerneck -8.77415 -7.12488 0.1745
upperneck 8.20553 -9.66785 1.07551
head 4.14692 -4.71345 -0.422688
lclavicle -1.43769e-14 1.24502e-15 1.89966e-31
lhumerus -47.4391 -31.4941 112.175
lradius 54.8087 -0 0
lwrist 5.8688 0 0
lhand 2.66302 0.498497 0.0568219
lfingers 7.12502 -0 0
lthumb 28.0982 27.9592 -0.0633173
rclavicle -1.43769e-14 1.24502e-15 1.89966e-31
rhumerus -40.8609 33.1386 -93.921
rradius 88.3017 -0 0
rwrist 21.9175 0 0
rhand -5.69712 -16.2314 0.336629
rfingers 7.12502 -0 0
rthumb 20.0994 -44.7822 0.397646
